<?xml version="1.0" encoding="utf-8"?>
<!-- Generator: Adobe Illustrator 24.1.0, SVG Export Plug-In . SVG Version: 6.00 Build 0)  -->
<svg version="1.1" id="Layer_1" xmlns="http://www.w3.org/2000/svg" xmlns:xlink="http://www.w3.org/1999/xlink" x="0px" y="0px"
	 viewBox="0 0 492 492" style="enable-background:new 0 0 492 492;" xml:space="preserve">
<style type="text/css">
	.st0{clip-path:url(#SVGID_2_);fill:url(#SVGID_3_);}
	.st1{clip-path:url(#SVGID_5_);fill:url(#SVGID_6_);}
	.st2{clip-path:url(#SVGID_8_);fill:url(#SVGID_9_);}
	.st3{clip-path:url(#SVGID_11_);fill:url(#SVGID_12_);}
	.st4{clip-path:url(#SVGID_14_);fill:url(#SVGID_15_);}
	.st5{clip-path:url(#SVGID_17_);fill:url(#SVGID_18_);}
	.st6{clip-path:url(#SVGID_20_);fill:url(#SVGID_21_);}
	.st7{clip-path:url(#SVGID_23_);fill:url(#SVGID_24_);}
	.st8{clip-path:url(#SVGID_26_);fill:url(#SVGID_27_);}
	.st9{clip-path:url(#SVGID_29_);fill:url(#SVGID_30_);}
	.st10{clip-path:url(#SVGID_32_);fill:url(#SVGID_33_);}
	.st11{clip-path:url(#SVGID_35_);fill:url(#SVGID_36_);}
	.st12{clip-path:url(#SVGID_38_);fill:url(#SVGID_39_);}
	.st13{clip-path:url(#SVGID_41_);fill:url(#SVGID_42_);}
	.st14{clip-path:url(#SVGID_44_);fill:url(#SVGID_45_);}
	.st15{clip-path:url(#SVGID_47_);fill:url(#SVGID_48_);}
	.st16{clip-path:url(#SVGID_50_);fill:url(#SVGID_51_);}
	.st17{clip-path:url(#SVGID_53_);fill:url(#SVGID_54_);}
	.st18{clip-path:url(#SVGID_56_);fill:url(#SVGID_57_);}
	.st19{clip-path:url(#SVGID_59_);fill:url(#SVGID_60_);}
	.st20{clip-path:url(#SVGID_62_);fill:url(#SVGID_63_);}
	.st21{clip-path:url(#SVGID_65_);fill:url(#SVGID_66_);}
	.st22{clip-path:url(#SVGID_68_);fill:url(#SVGID_69_);}
	.st23{clip-path:url(#SVGID_71_);fill:none;stroke:#A4A7AA;stroke-width:0.052;stroke-miterlimit:10;}
	.st24{clip-path:url(#SVGID_71_);fill:#231F20;}
	.st25{clip-path:url(#SVGID_71_);}
	.st26{clip-path:url(#SVGID_73_);fill:url(#SVGID_74_);}
	.st27{fill:#FFFFFF;}
</style>
<g>
	<defs>
		<path id="SVGID_1_" d="M168.74,298.32c-3.16-0.45-6.66-1.4-10.41-2.83c-0.44-15.87,1.88-27.06,6.91-33.26
			c3.79-4.67,9.16-6.55,15.96-5.58c4.7,0.67,8.95,2.57,11.32,3.79c0.57,5.8,1.47,22.28-5.25,31.42c-3.31,4.5-8.13,6.77-14.35,6.77
			C171.58,298.62,170.19,298.52,168.74,298.32 M197.82,216.87c-5.12,6.71-7.24,17.92-6.31,33.34c-2.67-1.12-6.3-2.37-10.21-2.93
			c-8.76-1.25-15.79,1.26-20.91,7.46c-6.04,7.32-9.11,19.63-9.13,36.61c-2.79-1.62-6.62-3.38-10.86-3.99
			c-7.71-1.1-18.46,1.44-25.84,19.74c-0.9,2.25-0.25,4.98,1.44,6.1c0.36,0.24,0.75,0.39,1.16,0.45c1.44,0.2,2.87-0.8,3.56-2.5
			c4.38-10.87,10.77-15.79,18.99-14.62c5.78,0.82,10.69,4.43,12.13,5.58c0.64,2.73,3.29,15.59-1.01,25.64
			c-2.49,5.81-6.94,9.79-13.22,11.83c-0.91,0.29-1.69,1.03-2.19,2.07c-0.5,1.04-0.67,2.26-0.47,3.44c0.31,1.85,1.49,3.22,2.93,3.43
			c0.41,0.06,0.82,0.02,1.22-0.11c8.06-2.61,13.92-7.73,17.43-15.21c2.04-4.35,5.06-13.6,3.13-27.72c3.15,1.03,6.15,1.75,8.93,2.15
			c10.28,1.46,18.22-1.36,23.6-8.4c3.5-4.58,5.85-10.84,6.97-18.61c0.73-5.01,0.94-10.53,0.64-16.42c4.07,1.79,7.86,2.95,11.28,3.44
			c7.13,1.01,12.85-0.8,17.01-5.38c5.77-6.37,6.29-15.88,6.31-16.27c0.14-2.39-1.18-4.47-3-4.73c-0.07-0.01-0.14-0.02-0.22-0.02
			c-0.93-0.05-1.83,0.37-2.54,1.18c-0.71,0.82-1.13,1.95-1.2,3.18c-0.01,0.23-0.31,5.64-3.73,9.42c-2.75,3.03-6.79,4.2-12.01,3.45
			c-3.73-0.53-8.06-2.05-12.87-4.51c-1.43-14.79-0.11-25.05,3.95-30.48c3.3-4.42,7.58-4.19,8.82-4.01c0.21,0.03,0.34,0.06,0.38,0.07
			c0.07,0.02,0.15,0.03,0.22,0.04c1.82,0.26,3.53-1.39,3.89-3.75c0.38-2.47-0.84-4.83-2.71-5.25c-0.08-0.02-0.36-0.08-0.8-0.15
			c-0.44-0.06-1.11-0.13-1.94-0.13C207.54,210.27,202.14,211.22,197.82,216.87"/>
	</defs>
	<clipPath id="SVGID_2_">
		<use xlink:href="#SVGID_1_"  style="overflow:visible;"/>
	</clipPath>
	
		<linearGradient id="SVGID_3_" gradientUnits="userSpaceOnUse" x1="0" y1="491.9999" x2="1" y2="491.9999" gradientTransform="matrix(120.3484 0.1843 -0.1843 -118.8686 204.7881 58762.6484)">
		<stop  offset="0" style="stop-color:#F86305"/>
		<stop  offset="5.376000e-03" style="stop-color:#F86305"/>
		<stop  offset="1" style="stop-color:#FFEB01"/>
	</linearGradient>
	<polygon class="st0" points="113.46,210.09 234.55,210.27 234.76,348.76 113.67,348.58 	"/>
</g>
<g>
	<defs>
		<path id="SVGID_4_" d="M168.62,299.47c-3.38-0.48-7.13-1.52-11.16-3.09c-0.56-16.66,1.86-28.43,7.17-34.99
			c3.99-4.92,9.61-6.91,16.69-5.9c5.04,0.72,9.54,2.79,12.01,4.11c0.65,6.01,1.75,23.29-5.43,33.05c-3.49,4.75-8.53,7.14-15.01,7.14
			C171.53,299.79,170.1,299.68,168.62,299.47 M198.44,217.68c-5.12,6.71-7.11,18.21-5.92,34.21c-2.94-1.34-6.97-2.83-11.34-3.45
			c-8.49-1.21-15.28,1.2-20.19,7.15c-6.07,7.35-9.03,20-8.82,37.62c-2.72-1.73-7.04-3.99-11.88-4.68
			c-7.43-1.06-17.79,1.4-24.93,19.1c-0.67,1.67-0.19,3.71,1.08,4.54c0.27,0.18,0.56,0.29,0.86,0.33c1.08,0.15,2.14-0.6,2.65-1.86
			c4.58-11.35,11.27-16.49,19.9-15.26c6.41,0.91,11.79,5.16,12.76,5.96c0.54,2.17,3.71,15.99-0.99,26.96
			c-2.62,6.11-7.27,10.29-13.81,12.41c-0.68,0.22-1.26,0.77-1.63,1.54c-0.38,0.78-0.5,1.69-0.35,2.57c0.23,1.38,1.11,2.4,2.18,2.55
			c0.3,0.04,0.61,0.02,0.91-0.08c7.82-2.53,13.49-7.47,16.87-14.67c2.09-4.47,5.13-14.01,2.73-28.74c3.63,1.27,7.06,2.14,10.21,2.59
			c10,1.42,17.68-1.29,22.85-8.05c7.59-9.94,7.91-26.06,7.24-35.92c4.51,2.11,8.67,3.45,12.39,3.97h0
			c6.88,0.98,12.37-0.74,16.32-5.11c5.47-6.04,5.96-15.07,5.98-15.44c0.1-1.78-0.88-3.33-2.23-3.52c-0.05-0.01-0.11-0.01-0.16-0.02
			c-0.69-0.04-1.36,0.27-1.89,0.88c-0.52,0.61-0.84,1.44-0.9,2.36c-0.01,0.25-0.33,6.15-4.05,10.26c-2.94,3.25-7.22,4.51-12.69,3.73
			c0,0,0,0,0,0c-3.93-0.56-8.49-2.18-13.57-4.83c-1.57-15.52-0.18-26.33,4.14-32.12c3.59-4.81,8.23-4.56,9.57-4.37
			c0.25,0.04,0.4,0.07,0.43,0.08c0.05,0.01,0.11,0.02,0.16,0.03c1.35,0.19,2.63-1.03,2.9-2.79c0.29-1.84-0.63-3.6-2.02-3.91
			c-0.07-0.02-0.33-0.07-0.74-0.13c-0.42-0.06-1.06-0.12-1.85-0.12C207.65,211.43,202.53,212.33,198.44,217.68"/>
	</defs>
	<clipPath id="SVGID_5_">
		<use xlink:href="#SVGID_4_"  style="overflow:visible;"/>
	</clipPath>
	
		<linearGradient id="SVGID_6_" gradientUnits="userSpaceOnUse" x1="0" y1="491.9999" x2="1" y2="491.9999" gradientTransform="matrix(118.5669 0.1815 -0.1815 -117.1089 204.3367 57896.9219)">
		<stop  offset="0" style="stop-color:#F86305"/>
		<stop  offset="5.376000e-03" style="stop-color:#F86305"/>
		<stop  offset="1" style="stop-color:#FFEB01"/>
	</linearGradient>
	<polygon class="st1" points="114.48,211.25 233.62,211.43 233.83,347.59 114.69,347.41 	"/>
</g>
<g>
	<defs>
		<path id="SVGID_7_" d="M153.92,300L153.92,300L153.92,300L153.92,300L153.92,300z M156.6,297.26
			c-2.22-57.4,30.42-42.43,37.54-38.5c0.99,8.49,3.38,42.19-21.26,42.19C168.4,300.95,163.03,299.84,156.6,297.26 M193.56,253.63
			c-10.62-5.24-41.89-15.85-40.46,41.51c-6.42-4.5-25.7-14.9-36.95,13c-0.44,1.1-0.13,2.44,0.71,2.98c0.83,0.55,1.87,0.1,2.31-1.01
			c11.37-28.18,32.46-11.03,34.05-9.68c0.05,0.05,0.1,0.09,0.15,0.13c0.02,0.08,0.03,0.15,0.06,0.22
			c0.61,2.36,8.15,33.41-15.42,41.04c-0.92,0.3-1.51,1.5-1.3,2.7c0.2,1.19,1.11,1.92,2.03,1.62c23.33-7.56,20.34-34.66,18.58-43.93
			c42.01,15.75,41.76-26.67,40.48-41.48c33.48,16.56,34.84-14.79,34.85-14.88c0.07-1.23-0.64-2.27-1.57-2.33
			c-0.94-0.06-1.76,0.9-1.83,2.12c0,0.08-1.12,26.34-32.02,9.96c-4.59-43.36,15.08-38.41,15.13-38.39c0.92,0.21,1.82-0.6,2.01-1.82
			c0.19-1.21-0.41-2.36-1.33-2.57c-0.01,0-0.98-0.24-2.49-0.24C204.59,212.59,190.29,216.37,193.56,253.63"/>
	</defs>
	<clipPath id="SVGID_8_">
		<use xlink:href="#SVGID_7_"  style="overflow:visible;"/>
	</clipPath>
	
		<linearGradient id="SVGID_9_" gradientUnits="userSpaceOnUse" x1="0" y1="492.0005" x2="1" y2="492.0005" gradientTransform="matrix(116.786 0.1788 -0.1788 -115.35 203.8852 57031.5)">
		<stop  offset="0" style="stop-color:#F86305"/>
		<stop  offset="5.376000e-03" style="stop-color:#F86305"/>
		<stop  offset="1" style="stop-color:#FFEB01"/>
	</linearGradient>
	<polygon class="st2" points="115.5,212.07 232.7,212.25 232.91,346.63 115.71,346.45 	"/>
</g>
<g>
	<defs>
		<path id="SVGID_10_" d="M212.33,222.35c-0.68,0.71-0.82,1.99-0.3,2.87l11.28,19.12c0.25,0.43,0.61,0.69,1.03,0.75
			c0.41,0.06,0.82-0.1,1.15-0.44c0.33-0.34,0.54-0.83,0.6-1.37c0.06-0.54-0.05-1.08-0.3-1.5l-11.28-19.12
			c-0.25-0.42-0.61-0.69-1.03-0.75c-0.06-0.01-0.11-0.01-0.17-0.01C212.96,221.9,212.61,222.06,212.33,222.35"/>
	</defs>
	<clipPath id="SVGID_11_">
		<use xlink:href="#SVGID_10_"  style="overflow:visible;"/>
	</clipPath>
	
		<linearGradient id="SVGID_12_" gradientUnits="userSpaceOnUse" x1="0" y1="491.9984" x2="1" y2="491.9984" gradientTransform="matrix(14.3588 0.022 -0.022 -14.1822 222.5425 7211.1538)">
		<stop  offset="0" style="stop-color:#F86305"/>
		<stop  offset="5.376000e-03" style="stop-color:#F86305"/>
		<stop  offset="1" style="stop-color:#FFEB01"/>
	</linearGradient>
	<polygon class="st3" points="211.47,221.88 226.14,221.9 226.18,245.17 211.51,245.15 	"/>
</g>
<g>
	<defs>
		<path id="SVGID_13_" d="M212.47,222.59c-0.58,0.6-0.7,1.7-0.26,2.45l11.28,19.12c0.44,0.75,1.27,0.87,1.86,0.26
			c0.58-0.6,0.7-1.7,0.26-2.45l-11.28-19.12c-0.25-0.43-0.63-0.65-1.02-0.65C213.01,222.2,212.72,222.33,212.47,222.59"/>
	</defs>
	<clipPath id="SVGID_14_">
		<use xlink:href="#SVGID_13_"  style="overflow:visible;"/>
	</clipPath>
	
		<linearGradient id="SVGID_15_" gradientUnits="userSpaceOnUse" x1="0" y1="491.9921" x2="1" y2="491.9921" gradientTransform="matrix(13.899 0.0213 -0.0213 -13.7281 222.4256 6987.7261)">
		<stop  offset="0" style="stop-color:#F86305"/>
		<stop  offset="5.376000e-03" style="stop-color:#F86305"/>
		<stop  offset="1" style="stop-color:#FFEB01"/>
	</linearGradient>
	<polygon class="st4" points="211.73,222.18 226.04,222.2 226.08,245.04 211.77,245.02 	"/>
</g>
<g>
	<defs>
		<path id="SVGID_16_" d="M203.71,226.17c-0.4,0.41-0.65,1-0.72,1.65c-0.07,0.65,0.06,1.29,0.36,1.8l13.99,23.74
			c0.3,0.51,0.74,0.83,1.23,0.9c0.49,0.07,0.99-0.12,1.38-0.53c0.4-0.41,0.65-1,0.72-1.65c0.07-0.65-0.06-1.29-0.36-1.8
			l-13.99-23.74c-0.3-0.51-0.74-0.83-1.23-0.9c-0.07-0.01-0.14-0.01-0.2-0.01C204.47,225.62,204.06,225.81,203.71,226.17"/>
	</defs>
	<clipPath id="SVGID_17_">
		<use xlink:href="#SVGID_16_"  style="overflow:visible;"/>
	</clipPath>
	
		<linearGradient id="SVGID_18_" gradientUnits="userSpaceOnUse" x1="0" y1="491.9984" x2="1" y2="491.9984" gradientTransform="matrix(17.6877 0.0271 -0.0271 -17.4702 216.3148 8835.2939)">
		<stop  offset="0" style="stop-color:#F86305"/>
		<stop  offset="5.376000e-03" style="stop-color:#F86305"/>
		<stop  offset="1" style="stop-color:#FFEB01"/>
	</linearGradient>
	<polygon class="st5" points="202.88,225.59 220.75,225.62 220.79,254.36 202.92,254.33 	"/>
</g>
<g>
	<defs>
		<path id="SVGID_19_" d="M203.88,226.45c-0.7,0.73-0.84,2.04-0.31,2.94l13.98,23.74c0.53,0.9,1.53,1.04,2.23,0.32
			c0.7-0.72,0.84-2.04,0.31-2.94l-13.99-23.74c-0.3-0.51-0.76-0.78-1.22-0.78C204.54,225.98,204.18,226.14,203.88,226.45"/>
	</defs>
	<clipPath id="SVGID_20_">
		<use xlink:href="#SVGID_19_"  style="overflow:visible;"/>
	</clipPath>
	
		<linearGradient id="SVGID_21_" gradientUnits="userSpaceOnUse" x1="0" y1="491.9922" x2="1" y2="491.9922" gradientTransform="matrix(17.1342 0.0262 -0.0262 -16.9235 216.1746 8566.2842)">
		<stop  offset="0" style="stop-color:#F86305"/>
		<stop  offset="5.376000e-03" style="stop-color:#F86305"/>
		<stop  offset="1" style="stop-color:#FFEB01"/>
	</linearGradient>
	<polygon class="st6" points="203,225.96 220.63,225.98 220.67,254.2 203.04,254.17 	"/>
</g>
<g>
	<defs>
		<path id="SVGID_22_" d="M199.65,238.52c-0.69,0.74-0.83,2.08-0.31,2.98l8.34,14.75c0.25,0.44,0.61,0.71,1.02,0.77
			c0.41,0.06,0.82-0.11,1.15-0.46c0.33-0.36,0.55-0.86,0.61-1.43c0.06-0.56-0.04-1.12-0.29-1.56l-8.35-14.75
			c-0.25-0.44-0.61-0.71-1.02-0.77c-0.06-0.01-0.11-0.01-0.17-0.01C200.28,238.05,199.93,238.21,199.65,238.52"/>
	</defs>
	<clipPath id="SVGID_23_">
		<use xlink:href="#SVGID_22_"  style="overflow:visible;"/>
	</clipPath>
	
		<linearGradient id="SVGID_24_" gradientUnits="userSpaceOnUse" x1="0" y1="491.9979" x2="1" y2="491.9979" gradientTransform="matrix(11.4354 0.0175 -0.0175 -11.2948 207.6492 5804.5688)">
		<stop  offset="0" style="stop-color:#F86305"/>
		<stop  offset="5.376000e-03" style="stop-color:#F86305"/>
		<stop  offset="1" style="stop-color:#FFEB01"/>
	</linearGradient>
	<polygon class="st7" points="198.79,238.03 210.52,238.05 210.55,257.1 198.82,257.09 	"/>
</g>
<g>
	<defs>
		<path id="SVGID_25_" d="M199.79,238.77c-0.59,0.63-0.71,1.77-0.27,2.54l8.35,14.75c0.44,0.77,1.27,0.89,1.86,0.27
			c0.59-0.63,0.71-1.77,0.27-2.54l-8.34-14.75c-0.25-0.44-0.62-0.67-1.01-0.67C200.34,238.36,200.04,238.5,199.79,238.77"/>
	</defs>
	<clipPath id="SVGID_26_">
		<use xlink:href="#SVGID_25_"  style="overflow:visible;"/>
	</clipPath>
	
		<linearGradient id="SVGID_27_" gradientUnits="userSpaceOnUse" x1="0" y1="491.9896" x2="1" y2="491.9896" gradientTransform="matrix(10.9752 0.0168 -0.0168 -10.8402 207.5322 5580.9253)">
		<stop  offset="0" style="stop-color:#F86305"/>
		<stop  offset="5.376000e-03" style="stop-color:#F86305"/>
		<stop  offset="1" style="stop-color:#FFEB01"/>
	</linearGradient>
	<polygon class="st8" points="199.05,238.35 210.42,238.36 210.45,256.97 199.08,256.95 	"/>
</g>
<g>
	<defs>
		<path id="SVGID_28_" d="M180.64,259.8c-0.72,0.77-0.87,2.17-0.33,3.12l7.73,13.65c0.26,0.46,0.64,0.75,1.07,0.81
			c0.43,0.06,0.86-0.11,1.21-0.48c0.35-0.37,0.57-0.9,0.64-1.49c0.06-0.59-0.05-1.17-0.31-1.63l-7.73-13.65
			c-0.26-0.46-0.64-0.75-1.07-0.81c-0.06-0.01-0.12-0.01-0.17-0.01C181.31,259.3,180.94,259.48,180.64,259.8"/>
	</defs>
	<clipPath id="SVGID_29_">
		<use xlink:href="#SVGID_28_"  style="overflow:visible;"/>
	</clipPath>
	
		<linearGradient id="SVGID_30_" gradientUnits="userSpaceOnUse" x1="0" y1="491.9977" x2="1" y2="491.9977" gradientTransform="matrix(10.9658 0.0168 -0.0168 -10.831 188.261 5597.1694)">
		<stop  offset="0" style="stop-color:#F86305"/>
		<stop  offset="5.376000e-03" style="stop-color:#F86305"/>
		<stop  offset="1" style="stop-color:#FFEB01"/>
	</linearGradient>
	<polygon class="st9" points="179.75,259.29 191.02,259.3 191.05,277.46 179.77,277.45 	"/>
</g>
<g>
	<defs>
		<path id="SVGID_31_" d="M180.79,260.05c-0.61,0.66-0.74,1.85-0.28,2.66l7.73,13.65c0.46,0.81,1.33,0.93,1.94,0.28
			c0.61-0.66,0.74-1.85,0.28-2.66l-7.73-13.65c-0.26-0.46-0.65-0.7-1.06-0.7C181.36,259.63,181.05,259.77,180.79,260.05"/>
	</defs>
	<clipPath id="SVGID_32_">
		<use xlink:href="#SVGID_31_"  style="overflow:visible;"/>
	</clipPath>
	
		<linearGradient id="SVGID_33_" gradientUnits="userSpaceOnUse" x1="0" y1="491.9887" x2="1" y2="491.9887" gradientTransform="matrix(10.4844 0.0161 -0.0161 -10.3555 188.1387 5363.25)">
		<stop  offset="0" style="stop-color:#F86305"/>
		<stop  offset="5.376000e-03" style="stop-color:#F86305"/>
		<stop  offset="1" style="stop-color:#FFEB01"/>
	</linearGradient>
	<polygon class="st10" points="180.02,259.62 190.92,259.63 190.95,277.32 180.05,277.3 	"/>
</g>
<g>
	<defs>
		<path id="SVGID_34_" d="M169.19,261.54c-0.76,0.76-0.9,2.16-0.33,3.11l14.66,24.27c0.28,0.46,0.68,0.75,1.14,0.82
			c0.46,0.07,0.91-0.1,1.27-0.47c0.76-0.76,0.9-2.16,0.33-3.11l-14.66-24.27c-0.28-0.46-0.68-0.75-1.14-0.82
			c-0.06-0.01-0.13-0.01-0.19-0.01C169.88,261.06,169.5,261.23,169.19,261.54"/>
	</defs>
	<clipPath id="SVGID_35_">
		<use xlink:href="#SVGID_34_"  style="overflow:visible;"/>
	</clipPath>
	
		<linearGradient id="SVGID_36_" gradientUnits="userSpaceOnUse" x1="0" y1="491.9985" x2="1" y2="491.9985" gradientTransform="matrix(18.0683 0.0277 -0.0277 -17.8462 182.1369 9055.7041)">
		<stop  offset="0" style="stop-color:#F86305"/>
		<stop  offset="5.376000e-03" style="stop-color:#F86305"/>
		<stop  offset="1" style="stop-color:#FFEB01"/>
	</linearGradient>
	<polygon class="st11" points="168.24,261.03 186.84,261.06 186.88,289.84 168.28,289.81 	"/>
</g>
<g>
	<defs>
		<path id="SVGID_37_" d="M169.34,261.8c-0.64,0.65-0.77,1.84-0.28,2.65l14.66,24.27c0.49,0.81,1.41,0.94,2.06,0.29
			c0.64-0.65,0.77-1.84,0.28-2.65l-14.66-24.27c-0.28-0.47-0.7-0.71-1.13-0.71C169.94,261.39,169.62,261.52,169.34,261.8"/>
	</defs>
	<clipPath id="SVGID_38_">
		<use xlink:href="#SVGID_37_"  style="overflow:visible;"/>
	</clipPath>
	
		<linearGradient id="SVGID_39_" gradientUnits="userSpaceOnUse" x1="0" y1="491.9932" x2="1" y2="491.9932" gradientTransform="matrix(17.5597 0.0269 -0.0269 -17.3438 182.008 8808.5498)">
		<stop  offset="0" style="stop-color:#F86305"/>
		<stop  offset="5.376000e-03" style="stop-color:#F86305"/>
		<stop  offset="1" style="stop-color:#FFEB01"/>
	</linearGradient>
	<polygon class="st12" points="168.53,261.36 186.55,261.39 186.59,289.69 168.57,289.67 	"/>
</g>
<g>
	<defs>
		<path id="SVGID_40_" d="M163.69,271.59c-0.73,0.76-0.87,2.13-0.32,3.07l10.45,17.81c0.27,0.45,0.65,0.74,1.09,0.8
			c0.44,0.06,0.87-0.1,1.23-0.47c0.73-0.76,0.87-2.13,0.32-3.07l-10.45-17.81c-0.27-0.45-0.65-0.74-1.09-0.8
			c-0.06-0.01-0.12-0.01-0.18-0.01C164.36,271.11,163.99,271.28,163.69,271.59"/>
	</defs>
	<clipPath id="SVGID_41_">
		<use xlink:href="#SVGID_40_"  style="overflow:visible;"/>
	</clipPath>
	
		<linearGradient id="SVGID_42_" gradientUnits="userSpaceOnUse" x1="0" y1="491.9982" x2="1" y2="491.9982" gradientTransform="matrix(13.7269 0.021 -0.021 -13.5581 173.3888 6952.7676)">
		<stop  offset="0" style="stop-color:#F86305"/>
		<stop  offset="5.376000e-03" style="stop-color:#F86305"/>
		<stop  offset="1" style="stop-color:#FFEB01"/>
	</linearGradient>
	<polygon class="st13" points="162.78,271.09 177,271.11 177.04,293.35 162.82,293.33 	"/>
</g>
<g>
	<defs>
		<path id="SVGID_43_" d="M163.84,271.84c-0.62,0.64-0.74,1.81-0.28,2.61l10.45,17.81c0.47,0.8,1.35,0.92,1.97,0.28
			c0.62-0.64,0.75-1.82,0.28-2.61l-10.45-17.81c-0.27-0.46-0.67-0.69-1.08-0.69C164.42,271.43,164.1,271.57,163.84,271.84"/>
	</defs>
	<clipPath id="SVGID_44_">
		<use xlink:href="#SVGID_43_"  style="overflow:visible;"/>
	</clipPath>
	
		<linearGradient id="SVGID_45_" gradientUnits="userSpaceOnUse" x1="0" y1="491.9911" x2="1" y2="491.9911" gradientTransform="matrix(13.2389 0.0203 -0.0203 -13.0761 173.2652 6715.6157)">
		<stop  offset="0" style="stop-color:#F86305"/>
		<stop  offset="5.376000e-03" style="stop-color:#F86305"/>
		<stop  offset="1" style="stop-color:#FFEB01"/>
	</linearGradient>
	<polygon class="st14" points="163.06,271.41 176.73,271.43 176.76,293.21 163.09,293.19 	"/>
</g>
<g>
	<defs>
		<path id="SVGID_46_" d="M159.87,284.27c-0.33,0.34-0.54,0.82-0.6,1.36c-0.06,0.54,0.05,1.07,0.3,1.49l5.01,8.49
			c0.25,0.42,0.61,0.69,1.02,0.74c0.41,0.06,0.81-0.1,1.14-0.44c0.33-0.34,0.54-0.82,0.6-1.36c0.06-0.54-0.05-1.07-0.3-1.49
			l-5.01-8.49c-0.25-0.42-0.61-0.69-1.02-0.74c-0.06-0.01-0.11-0.01-0.17-0.01C160.49,283.82,160.15,283.98,159.87,284.27"/>
	</defs>
	<clipPath id="SVGID_47_">
		<use xlink:href="#SVGID_46_"  style="overflow:visible;"/>
	</clipPath>
	
		<linearGradient id="SVGID_48_" gradientUnits="userSpaceOnUse" x1="0" y1="491.9972" x2="1" y2="491.9972" gradientTransform="matrix(8.0835 0.0124 -0.0124 -7.9841 165.3508 4218.2715)">
		<stop  offset="0" style="stop-color:#F86305"/>
		<stop  offset="5.376000e-03" style="stop-color:#F86305"/>
		<stop  offset="1" style="stop-color:#FFEB01"/>
	</linearGradient>
	<polygon class="st15" points="159.19,283.81 167.39,283.82 167.41,296.42 159.21,296.41 	"/>
</g>
<g>
	<defs>
		<path id="SVGID_49_" d="M160.01,284.5c-0.58,0.6-0.69,1.69-0.26,2.43l5.01,8.49c0.44,0.74,1.26,0.86,1.84,0.26
			c0.58-0.6,0.69-1.69,0.26-2.43l-5.01-8.49c-0.25-0.42-0.63-0.64-1.01-0.64C160.55,284.12,160.26,284.25,160.01,284.5"/>
	</defs>
	<clipPath id="SVGID_50_">
		<use xlink:href="#SVGID_49_"  style="overflow:visible;"/>
	</clipPath>
	
		<linearGradient id="SVGID_51_" gradientUnits="userSpaceOnUse" x1="0" y1="491.9857" x2="1" y2="491.9857" gradientTransform="matrix(7.626 0.0117 -0.0117 -7.5322 165.2348 3995.9243)">
		<stop  offset="0" style="stop-color:#F86305"/>
		<stop  offset="5.376000e-03" style="stop-color:#F86305"/>
		<stop  offset="1" style="stop-color:#FFEB01"/>
	</linearGradient>
	<polygon class="st16" points="159.29,284.11 167.29,284.12 167.31,296.29 159.31,296.28 	"/>
</g>
<g>
	<defs>
		<path id="SVGID_52_" d="M143.87,300.91c-0.32,0.34-0.52,0.83-0.58,1.37c-0.06,0.54,0.04,1.07,0.28,1.49l4.55,8.08
			c0.24,0.42,0.58,0.69,0.98,0.74c0.39,0.06,0.78-0.1,1.1-0.45c0.32-0.34,0.52-0.83,0.58-1.37c0.06-0.54-0.04-1.07-0.28-1.49
			l-4.55-8.09c-0.24-0.42-0.58-0.68-0.98-0.74c-0.05-0.01-0.1-0.01-0.15-0.01C144.48,300.45,144.14,300.61,143.87,300.91"/>
	</defs>
	<clipPath id="SVGID_53_">
		<use xlink:href="#SVGID_52_"  style="overflow:visible;"/>
	</clipPath>
	
		<linearGradient id="SVGID_54_" gradientUnits="userSpaceOnUse" x1="0" y1="491.997" x2="1" y2="491.997" gradientTransform="matrix(7.5091 0.0115 -0.0115 -7.4168 148.9335 3955.5916)">
		<stop  offset="0" style="stop-color:#F86305"/>
		<stop  offset="5.376000e-03" style="stop-color:#F86305"/>
		<stop  offset="1" style="stop-color:#FFEB01"/>
	</linearGradient>
	<polygon class="st17" points="143.21,300.44 150.83,300.45 150.85,312.66 143.23,312.65 	"/>
</g>
<g>
	<defs>
		<path id="SVGID_55_" d="M144,301.14c-0.56,0.61-0.67,1.7-0.26,2.44l4.55,8.08c0.42,0.74,1.21,0.86,1.77,0.25
			c0.56-0.6,0.68-1.7,0.26-2.44l-4.55-8.08c-0.24-0.42-0.6-0.64-0.96-0.64C144.53,300.75,144.24,300.88,144,301.14"/>
	</defs>
	<clipPath id="SVGID_56_">
		<use xlink:href="#SVGID_55_"  style="overflow:visible;"/>
	</clipPath>
	
		<linearGradient id="SVGID_57_" gradientUnits="userSpaceOnUse" x1="0" y1="491.9846" x2="1" y2="491.9846" gradientTransform="matrix(7.069 0.0108 -0.0108 -6.9821 148.822 3741.7231)">
		<stop  offset="0" style="stop-color:#F86305"/>
		<stop  offset="5.376000e-03" style="stop-color:#F86305"/>
		<stop  offset="1" style="stop-color:#FFEB01"/>
	</linearGradient>
	<polygon class="st18" points="143.31,300.74 150.74,300.75 150.76,312.53 143.32,312.52 	"/>
</g>
<g>
	<defs>
		<path id="SVGID_58_" d="M133.65,300.85c-0.37,0.38-0.61,0.93-0.68,1.54c-0.06,0.61,0.06,1.2,0.34,1.68l12.7,21.42
			c0.28,0.48,0.69,0.77,1.15,0.84c0.46,0.07,0.92-0.11,1.3-0.49c0.37-0.38,0.61-0.93,0.68-1.53c0.07-0.61-0.06-1.2-0.34-1.68
			L136.1,301.2c-0.28-0.48-0.69-0.78-1.16-0.84c-0.06-0.01-0.13-0.01-0.19-0.01C134.36,300.34,133.97,300.52,133.65,300.85"/>
	</defs>
	<clipPath id="SVGID_59_">
		<use xlink:href="#SVGID_58_"  style="overflow:visible;"/>
	</clipPath>
	
		<linearGradient id="SVGID_60_" gradientUnits="userSpaceOnUse" x1="0" y1="491.9984" x2="1" y2="491.9984" gradientTransform="matrix(16.1621 0.0247 -0.0247 -15.9634 145.1454 8167.3203)">
		<stop  offset="0" style="stop-color:#F86305"/>
		<stop  offset="5.376000e-03" style="stop-color:#F86305"/>
		<stop  offset="1" style="stop-color:#FFEB01"/>
	</linearGradient>
	<polygon class="st19" points="132.87,300.32 149.2,300.34 149.24,326.41 132.91,326.39 	"/>
</g>
<g>
	<defs>
		<path id="SVGID_61_" d="M133.8,301.11c-0.66,0.67-0.79,1.9-0.29,2.74l12.7,21.42c0.5,0.84,1.43,0.97,2.09,0.3
			c0.66-0.67,0.79-1.9,0.29-2.74l-12.7-21.42c-0.28-0.48-0.71-0.73-1.15-0.73C134.42,300.68,134.09,300.82,133.8,301.11"/>
	</defs>
	<clipPath id="SVGID_62_">
		<use xlink:href="#SVGID_61_"  style="overflow:visible;"/>
	</clipPath>
	
		<linearGradient id="SVGID_63_" gradientUnits="userSpaceOnUse" x1="0" y1="491.9921" x2="1" y2="491.9921" gradientTransform="matrix(15.6441 0.024 -0.024 -15.4518 145.0141 7915.5898)">
		<stop  offset="0" style="stop-color:#F86305"/>
		<stop  offset="5.376000e-03" style="stop-color:#F86305"/>
		<stop  offset="1" style="stop-color:#FFEB01"/>
	</linearGradient>
	<polygon class="st20" points="132.98,300.65 149.08,300.68 149.12,326.26 133.02,326.24 	"/>
</g>
<g>
	<defs>
		<path id="SVGID_64_" d="M125,307.05c-0.78,0.79-0.94,2.24-0.34,3.22l15.04,24.87c0.29,0.48,0.71,0.78,1.18,0.85
			c0.47,0.07,0.94-0.11,1.32-0.49c0.78-0.79,0.94-2.24,0.34-3.23l-15.04-24.87c-0.29-0.48-0.71-0.78-1.18-0.85
			c-0.07-0.01-0.13-0.01-0.2-0.01C125.72,306.55,125.33,306.72,125,307.05"/>
	</defs>
	<clipPath id="SVGID_65_">
		<use xlink:href="#SVGID_64_"  style="overflow:visible;"/>
	</clipPath>
	
		<linearGradient id="SVGID_66_" gradientUnits="userSpaceOnUse" x1="0" y1="491.9985" x2="1" y2="491.9985" gradientTransform="matrix(18.578 0.0284 -0.0284 -18.3495 138.3131 9349.2305)">
		<stop  offset="0" style="stop-color:#F86305"/>
		<stop  offset="5.376000e-03" style="stop-color:#F86305"/>
		<stop  offset="1" style="stop-color:#FFEB01"/>
	</linearGradient>
	<polygon class="st21" points="124.02,306.52 143.15,306.55 143.19,336.09 124.06,336.06 	"/>
</g>
<g>
	<defs>
		<path id="SVGID_67_" d="M125.16,307.32c-0.67,0.68-0.8,1.91-0.29,2.75l15.04,24.87c0.51,0.84,1.47,0.98,2.14,0.3
			c0.67-0.67,0.8-1.9,0.29-2.75l-15.04-24.87c-0.29-0.48-0.73-0.73-1.18-0.73C125.79,306.89,125.45,307.03,125.16,307.32"/>
	</defs>
	<clipPath id="SVGID_68_">
		<use xlink:href="#SVGID_67_"  style="overflow:visible;"/>
	</clipPath>
	
		<linearGradient id="SVGID_69_" gradientUnits="userSpaceOnUse" x1="0" y1="491.9931" x2="1" y2="491.9931" gradientTransform="matrix(18.0502 0.0276 -0.0276 -17.8282 138.1794 9092.7383)">
		<stop  offset="0" style="stop-color:#F86305"/>
		<stop  offset="5.376000e-03" style="stop-color:#F86305"/>
		<stop  offset="1" style="stop-color:#FFEB01"/>
	</linearGradient>
	<polygon class="st22" points="124.32,306.86 142.85,306.89 142.89,335.94 124.36,335.91 	"/>
</g>
<g>
	<defs>
		<rect id="SVGID_70_" width="492" height="492"/>
	</defs>
	<clipPath id="SVGID_71_">
		<use xlink:href="#SVGID_70_"  style="overflow:visible;"/>
	</clipPath>
	<path class="st23" d="M316.06,145.81c0.03,0.04,0.06,0.09,0.08,0.13c0.02,0.03,0.03,0.05,0.05,0.08c-0.01-0.02-0.03-0.05-0.05-0.07
		C316.12,145.9,316.09,145.86,316.06,145.81z"/>
	<path class="st24" d="M279.96,236.55c-14.62,5.88-15.12,10-43.81,17.61c1.54,38.14,5.56,57.16,12.06,57.04
		C255.6,311.07,266.2,286.17,279.96,236.55z"/>
	<path class="st25" d="M224.53,169.8c-8.59,13.2-12.73,12.9-25.74,39.59c-37.12-8.88-55.01-16.5-53.64-22.86
		C146.71,179.3,173.18,173.71,224.53,169.8"/>
</g>
<g>
	<defs>
		<path id="SVGID_72_" d="M246.45,207.7 M269.52,208.48 M250.14,184.91 M246.45,207.7 M326.65,101.68
			c-78.35,19.69-119.25,98.4-125,109.88l16.18,19.68l16.13,19.62c12.37-3.41,97.5-28.34,131.95-101.41
			c8.77-18.64,12.35-36.29,13.47-51.1c-5.38-0.65-11.19-1.04-17.38-1.04C351.24,97.3,339.34,98.5,326.65,101.68"/>
	</defs>
	<clipPath id="SVGID_73_">
		<use xlink:href="#SVGID_72_"  style="overflow:visible;"/>
	</clipPath>
	
		<linearGradient id="SVGID_74_" gradientUnits="userSpaceOnUse" x1="0" y1="492.0003" x2="1" y2="492.0003" gradientTransform="matrix(-0.3935 -163.918 -161.8713 -12.5159 79931.4531 6413.0796)">
		<stop  offset="0" style="stop-color:#FF152F"/>
		<stop  offset="0" style="stop-color:#9A16F7"/>
		<stop  offset="1" style="stop-color:#2A0003"/>
	</linearGradient>
	<polygon class="st26" points="201.65,250.85 201.25,83.52 379.39,97.3 379.79,264.62 	"/>
</g>
<g>
	<g>
		<path class="st27" d="M237.54,197.11l1.57-1.3l13.78,16.74l6.15-5.06l1.67,2.03l-7.72,6.35L237.54,197.11z"/>
		<path class="st27" d="M251.83,185.54c-0.9-1.09-0.98-2.27-0.25-2.86s1.86-0.29,2.76,0.8c0.92,1.12,0.98,2.27,0.26,2.86
			S252.74,186.66,251.83,185.54z M257.94,191.7l-4.27,3.51l-1.58-1.92l5.84-4.81l11.45,13.91l-1.57,1.3L257.94,191.7z"/>
		<path class="st27" d="M265.39,180.38c-2.78-3.38-3.46-6.61-0.92-8.7c0.91-0.75,1.99-1.21,3.32-1.38l1.1,2.07
			c-1.16,0.14-1.89,0.45-2.68,1.11c-1.65,1.36-1.16,3.31,0.68,5.54l12.48,15.17l-1.55,1.28L265.39,180.38z M263.84,183.87l2.56-2.34
			l5.37-4.42l1.58,1.92l-8.04,6.62L263.84,183.87z"/>
		<path class="st27" d="M284.05,181.25l-5.42-6.58l-2.62,2.15l-1.46-1.77l2.56-2.34l-3.47-4.64l1.31-1.08l3.67,4.46l4.51-3.72
			l1.58,1.92l-4.51,3.72l5.44,6.61c2.05,2.49,3.66,3.32,5.44,1.86c0.85-0.7,1.32-1.52,1.68-2.44l1.78,1.46
			c-0.46,1.14-1.04,2.25-2.2,3.2C289.65,186.28,286.87,184.68,284.05,181.25z"/>
		<path class="st27" d="M291.41,172.65c-3.84-4.66-3.91-9.07-1.48-11.07c2.43-2,6.74-1.08,10.58,3.58
			c3.79,4.61,3.86,9.02,1.43,11.02C299.51,178.17,295.2,177.25,291.41,172.65z M298.9,166.48c-2.64-3.2-5.58-4.38-7.34-2.93
			c-1.76,1.45-1.17,4.57,1.46,7.77c2.62,3.18,5.53,4.33,7.3,2.88C302.08,172.74,301.51,169.66,298.9,166.48z"/>
		<path class="st27" d="M299.53,152.28c-2.78-3.38-3.46-6.61-0.92-8.7c0.91-0.75,2-1.21,3.32-1.38l1.1,2.07
			c-1.16,0.14-1.89,0.45-2.68,1.11c-1.65,1.36-1.16,3.31,0.68,5.54l12.48,15.17l-1.56,1.28L299.53,152.28z M297.97,155.77l2.56-2.34
			l5.37-4.42l1.58,1.92l-8.04,6.62L297.97,155.77z"/>
		<path class="st27" d="M310.91,142.92c-2.78-3.38-3.46-6.61-0.92-8.7c0.91-0.75,2-1.21,3.32-1.38l1.1,2.07
			c-1.16,0.14-1.89,0.45-2.68,1.11c-1.65,1.36-1.16,3.31,0.68,5.54l12.48,15.17l-1.56,1.28L310.91,142.92z M309.35,146.4l2.56-2.34
			l5.37-4.42l1.58,1.92l-8.04,6.62L309.35,146.4z"/>
	</g>
</g>
</svg>
