<?xml version="1.0" encoding="UTF-8" standalone="no"?>
<svg
   xmlns:dc="http://purl.org/dc/elements/1.1/"
   xmlns:cc="http://creativecommons.org/ns#"
   xmlns:rdf="http://www.w3.org/1999/02/22-rdf-syntax-ns#"
   xmlns:svg="http://www.w3.org/2000/svg"
   xmlns="http://www.w3.org/2000/svg"
   xmlns:xlink="http://www.w3.org/1999/xlink"
   xmlns:sodipodi="http://sodipodi.sourceforge.net/DTD/sodipodi-0.dtd"
   xmlns:inkscape="http://www.inkscape.org/namespaces/inkscape"
   inkscape:version="1.0beta2 (2b71d25, 2019-12-03)"
   sodipodi:docname="liftoff_logo_current_dark_mode.svg"
   xml:space="preserve"
   style="enable-background:new 0 0 266.33 265.24;"
   viewBox="0 0 266.33 265.24"
   y="0px"
   x="0px"
   id="Layer_1"
   version="1.1"><metadata
   id="metadata1051"><rdf:RDF><cc:Work
       rdf:about=""><dc:format>image/svg+xml</dc:format><dc:type
         rdf:resource="http://purl.org/dc/dcmitype/StillImage" /><dc:title></dc:title></cc:Work></rdf:RDF></metadata><defs
   id="defs1049" /><sodipodi:namedview
   inkscape:current-layer="Layer_1"
   inkscape:window-maximized="0"
   inkscape:window-y="23"
   inkscape:window-x="0"
   inkscape:cy="130.99276"
   inkscape:cx="141.30119"
   inkscape:zoom="2.4581512"
   showgrid="false"
   id="namedview1047"
   inkscape:window-height="782"
   inkscape:window-width="1440"
   inkscape:pageshadow="2"
   inkscape:pageopacity="0"
   guidetolerance="10"
   gridtolerance="10"
   objecttolerance="10"
   borderopacity="1"
   inkscape:document-rotation="0"
   bordercolor="#666666"
   pagecolor="#000000" />
<style
   id="style833"
   type="text/css">
	.st0{clip-path:url(#SVGID_2_);fill:url(#SVGID_3_);}
	.st1{clip-path:url(#SVGID_5_);fill:url(#SVGID_6_);}
	.st2{clip-path:url(#SVGID_8_);fill:url(#SVGID_9_);}
	.st3{clip-path:url(#SVGID_11_);fill:url(#SVGID_12_);}
	.st4{clip-path:url(#SVGID_14_);fill:url(#SVGID_15_);}
	.st5{clip-path:url(#SVGID_17_);fill:url(#SVGID_18_);}
	.st6{clip-path:url(#SVGID_20_);fill:url(#SVGID_21_);}
	.st7{clip-path:url(#SVGID_23_);fill:url(#SVGID_24_);}
	.st8{clip-path:url(#SVGID_26_);fill:url(#SVGID_27_);}
	.st9{clip-path:url(#SVGID_29_);fill:url(#SVGID_30_);}
	.st10{fill:none;stroke:#A4A7AA;stroke-width:0.052;stroke-miterlimit:10;}
	.st11{fill:#231F20;}
	.st12{clip-path:url(#SVGID_32_);fill:url(#SVGID_33_);}
	.st13{fill:#FFFFFF;}
</style>
<g
   id="g850">
	<defs
   id="defs836">
		<path
   d="M56.99,209.38c-2.96-0.5-6.23-1.49-9.72-2.94c-1.11-27,9.64-46.52,32.79-33.23    C81.69,185.23,78.6,214.65,56.99,209.38 M85.92,131.19c-4.94,6.38-7.15,17.19-6.59,32.11c-25.99-12.29-39.07,10.19-38.59,39    c-12.77-7.08-24.54-7.97-34.76,14.52c-0.89,2.16-0.34,4.82,1.23,5.93c1.65,1.15,3.62,0.17,4.47-1.9    c5.99-16.89,20.32-16.57,29.39-8.14c2.51,7.89,1.93,32.73-14.12,35.95c-0.86,0.27-1.6,0.96-2.1,1.96    c-1.26,2.2-0.36,6.33,2.17,6.69c17.63-5.04,22.82-18.53,21.31-41.2c28.31,11.47,40.07-13.33,38.51-39.15    c17.92,9.99,32-0.69,32.83-16.94c0.37-3.53-2.91-6.29-5.33-3.56c-0.68,0.78-1.1,1.86-1.19,3.05    c-0.94,14.49-15.55,14.86-27.02,7.52c-0.89-17.12-0.12-34.02,13.23-32.99c4.19,0.71,5.18-7.89,1.29-8.68    C95.89,124.63,91.27,124.9,85.92,131.19"
   id="SVGID_1_" />
	</defs>
	<clipPath
   id="SVGID_2_">
		<use
   id="use838"
   style="overflow:visible;"
   xlink:href="#SVGID_1_" />
	</clipPath>
	
		<linearGradient
   gradientTransform="matrix(112.9418 2.5356 2.2263 -114.9573 12017.9785 47438.5898)"
   y2="408.4867"
   x2="-113.4067"
   y1="408.4867"
   x1="-114.4067"
   gradientUnits="userSpaceOnUse"
   id="SVGID_3_">
		<stop
   id="stop841"
   style="stop-color:#F86305"
   offset="0" />
		<stop
   id="stop843"
   style="stop-color:#F86305"
   offset="5.376000e-03" />
		<stop
   id="stop845"
   style="stop-color:#FFEB01"
   offset="1" />
	</linearGradient>
	<polygon
   id="polygon848"
   clip-path="url(#SVGID_2_)"
   points="6.89,122.98 120.52,125.53 117.93,259.46 4.3,256.91  "
   class="st0" />
</g>
<g
   id="g867">
	<defs
   id="defs853">
		<path
   d="M90.17,141.66c-3.18,2.32,16.08,22.05,16.68,24.03c1.24,1.62,3.15,0.04,2.91-1.71    c0.98-1.1-16.79-21.26-17.1-22.34C91.97,140.74,90.78,140.72,90.17,141.66"
   id="SVGID_4_" />
	</defs>
	<clipPath
   id="SVGID_5_">
		<use
   id="use855"
   style="overflow:visible;"
   xlink:href="#SVGID_4_" />
	</clipPath>
	
		<linearGradient
   gradientTransform="matrix(16.4102 -2.5256 -2.6219 -16.6939 3034.449 6687.4097)"
   y2="408.5624"
   x2="-113.0558"
   y1="408.5624"
   x1="-114.0558"
   gradientUnits="userSpaceOnUse"
   id="SVGID_6_">
		<stop
   id="stop858"
   style="stop-color:#F86305"
   offset="0" />
		<stop
   id="stop860"
   style="stop-color:#F86305"
   offset="5.376000e-03" />
		<stop
   id="stop862"
   style="stop-color:#FFEB01"
   offset="1" />
	</linearGradient>
	<polygon
   id="polygon865"
   clip-path="url(#SVGID_5_)"
   points="89.31,141.24 105.89,138.69 110.2,166.14 93.62,168.69  "
   class="st1" />
</g>
<g
   id="g884">
	<defs
   id="defs870">
		<path
   d="M87.76,154.31c-2.28,2.28,9.58,13.82,10.29,15.65c1.08,1.4,2.63-0.04,2.4-1.5    c0.68-0.68-10.31-13.51-10.63-14.2C89.24,153.5,88.25,153.5,87.76,154.31"
   id="SVGID_7_" />
	</defs>
	<clipPath
   id="SVGID_8_">
		<use
   id="use872"
   style="overflow:visible;"
   xlink:href="#SVGID_7_" />
	</clipPath>
	
		<linearGradient
   gradientTransform="matrix(10.5867 -1.7741 -1.8388 -10.7693 2043.1703 4359.5552)"
   y2="408.4017"
   x2="-112.6843"
   y1="408.4017"
   x1="-113.6843"
   gradientUnits="userSpaceOnUse"
   id="SVGID_9_">
		<stop
   id="stop875"
   style="stop-color:#F86305"
   offset="0" />
		<stop
   id="stop877"
   style="stop-color:#F86305"
   offset="5.376000e-03" />
		<stop
   id="stop879"
   style="stop-color:#FFEB01"
   offset="1" />
	</linearGradient>
	<polygon
   id="polygon882"
   clip-path="url(#SVGID_8_)"
   points="86.88,153.98 97.75,152.16 100.85,170.33 89.98,172.15  "
   class="st2" />
</g>
<g
   id="g901">
	<defs
   id="defs887">
		<path
   d="M65.93,172.37c-2.3,2.36,8.9,12.87,9.7,14.75c1.14,1.46,2.74-0.07,2.49-1.6    c0.79-0.54-9.73-12.6-10.03-13.22C67.47,171.51,66.44,171.51,65.93,172.37"
   id="SVGID_10_" />
	</defs>
	<clipPath
   id="SVGID_11_">
		<use
   id="use889"
   style="overflow:visible;"
   xlink:href="#SVGID_10_" />
	</clipPath>
	
		<linearGradient
   gradientTransform="matrix(10.1352 -1.7982 -1.862 -10.3097 1992.9701 4199.459)"
   y2="409.8242"
   x2="-113.7575"
   y1="409.8242"
   x1="-114.7575"
   gradientUnits="userSpaceOnUse"
   id="SVGID_12_">
		<stop
   id="stop892"
   style="stop-color:#F86305"
   offset="0" />
		<stop
   id="stop894"
   style="stop-color:#F86305"
   offset="5.376000e-03" />
		<stop
   id="stop896"
   style="stop-color:#FFEB01"
   offset="1" />
	</linearGradient>
	<polygon
   id="polygon899"
   clip-path="url(#SVGID_11_)"
   points="65.01,172.03 75.43,170.18 78.55,187.47 68.13,189.32  "
   class="st3" />
</g>
<g
   id="g918">
	<defs
   id="defs904">
		<path
   d="M55.9,175.38c-3.12,1.92,16.93,22.42,17.37,24.1c1.86,2.05,3.64-1.5,2.13-3.04    c0,0-17.21-21.08-17.21-21.08C57.56,174.55,56.47,174.53,55.9,175.38"
   id="SVGID_13_" />
	</defs>
	<clipPath
   id="SVGID_14_">
		<use
   id="use906"
   style="overflow:visible;"
   xlink:href="#SVGID_13_" />
	</clipPath>
	
		<linearGradient
   gradientTransform="matrix(16.7629 -2.582 -2.6805 -17.0528 3065.2683 6861.0303)"
   y2="408.55"
   x2="-113.1089"
   y1="408.55"
   x1="-114.1089"
   gradientUnits="userSpaceOnUse"
   id="SVGID_15_">
		<stop
   id="stop909"
   style="stop-color:#F86305"
   offset="0" />
		<stop
   id="stop911"
   style="stop-color:#F86305"
   offset="5.376000e-03" />
		<stop
   id="stop913"
   style="stop-color:#FFEB01"
   offset="1" />
	</linearGradient>
	<polygon
   id="polygon916"
   clip-path="url(#SVGID_14_)"
   points="54.94,175.03 72.2,172.37 76.52,199.87 59.27,202.53  "
   class="st4" />
</g>
<g
   id="g935">
	<defs
   id="defs921">
		<path
   d="M52.11,185.56c-2.65,2.17,11.79,16.73,12.41,18.55c1.81,2.04,3.48-1.5,2.06-2.99    c0,0-12.27-15.57-12.27-15.57C53.71,184.75,52.66,184.73,52.11,185.56"
   id="SVGID_16_" />
	</defs>
	<clipPath
   id="SVGID_17_">
		<use
   id="use923"
   style="overflow:visible;"
   xlink:href="#SVGID_16_" />
	</clipPath>
	
		<linearGradient
   gradientTransform="matrix(12.7443 -1.9013 -1.975 -12.9649 2311.8206 5275.1699)"
   y2="408.4871"
   x2="-112.933"
   y1="408.4871"
   x1="-113.933"
   gradientUnits="userSpaceOnUse"
   id="SVGID_18_">
		<stop
   id="stop926"
   style="stop-color:#F86305"
   offset="0" />
		<stop
   id="stop928"
   style="stop-color:#F86305"
   offset="5.376000e-03" />
		<stop
   id="stop930"
   style="stop-color:#FFEB01"
   offset="1" />
	</linearGradient>
	<polygon
   id="polygon933"
   clip-path="url(#SVGID_17_)"
   points="51.2,185.2 64.4,183.23 67.64,204.5 54.44,206.47  "
   class="st5" />
</g>
<g
   id="g952">
	<defs
   id="defs938">
		<path
   d="M49.31,197.03c-2.11,2.18,4.75,8.7,5.43,10.5c0.95,1.4,2.59,0.19,2.49-1.26c0.38-1.02-5.43-8.24-5.87-9.14    C50.84,196.36,49.86,196.28,49.31,197.03"
   id="SVGID_19_" />
	</defs>
	<clipPath
   id="SVGID_20_">
		<use
   id="use940"
   style="overflow:visible;"
   xlink:href="#SVGID_19_" />
	</clipPath>
	
		<linearGradient
   gradientTransform="matrix(7.5551 -0.7052 -0.7414 -7.6872 1210.0883 3262.8518)"
   y2="408.5016"
   x2="-112.5575"
   y1="408.5016"
   x1="-113.5575"
   gradientUnits="userSpaceOnUse"
   id="SVGID_21_">
		<stop
   id="stop943"
   style="stop-color:#F86305"
   offset="0" />
		<stop
   id="stop945"
   style="stop-color:#F86305"
   offset="5.376000e-03" />
		<stop
   id="stop947"
   style="stop-color:#FFEB01"
   offset="1" />
	</linearGradient>
	<polygon
   id="polygon950"
   clip-path="url(#SVGID_20_)"
   points="48.64,196.64 56.3,195.93 57.47,208.06 49.81,208.78  "
   class="st6" />
</g>
<g
   id="g969">
	<defs
   id="defs955">
		<path
   d="M29.76,212.68c-1.73,2.39,5.25,7.79,6.14,9.5c1.09,1.31,2.5-0.15,2.22-1.54c0.23-1.08-5.84-7.23-6.39-8.1    C31.14,211.84,30.2,211.87,29.76,212.68"
   id="SVGID_22_" />
	</defs>
	<clipPath
   id="SVGID_23_">
		<use
   id="use957"
   style="overflow:visible;"
   xlink:href="#SVGID_22_" />
	</clipPath>
	
		<linearGradient
   gradientTransform="matrix(6.8915 -1.4806 -1.5285 -7.0094 1439.2139 2911.6951)"
   y2="408.3317"
   x2="-112.8623"
   y1="408.3317"
   x1="-113.8623"
   gradientUnits="userSpaceOnUse"
   id="SVGID_24_">
		<stop
   id="stop960"
   style="stop-color:#F86305"
   offset="0" />
		<stop
   id="stop962"
   style="stop-color:#F86305"
   offset="5.376000e-03" />
		<stop
   id="stop964"
   style="stop-color:#FFEB01"
   offset="1" />
	</linearGradient>
	<polygon
   id="polygon967"
   clip-path="url(#SVGID_23_)"
   points="29.06,212.37 36.06,210.86 38.58,222.41 31.58,223.91  "
   class="st7" />
</g>
<g
   id="g986">
	<defs
   id="defs972">
		<path
   d="M19.9,212.55c-2.98,2.14,14.16,20.18,14.7,22.05c1.13,1.53,2.94,0.1,2.76-1.53    c1.24-0.32-15.06-19.94-15.13-20.5C21.6,211.73,20.49,211.69,19.9,212.55"
   id="SVGID_25_" />
	</defs>
	<clipPath
   id="SVGID_26_">
		<use
   id="use974"
   style="overflow:visible;"
   xlink:href="#SVGID_25_" />
	</clipPath>
	
		<linearGradient
   gradientTransform="matrix(15.0367 -2.0164 -2.0994 -15.2977 2596.7595 6245.4443)"
   y2="408.6373"
   x2="-113.2522"
   y1="408.6373"
   x1="-114.2522"
   gradientUnits="userSpaceOnUse"
   id="SVGID_27_">
		<stop
   id="stop977"
   style="stop-color:#F86305"
   offset="0" />
		<stop
   id="stop979"
   style="stop-color:#F86305"
   offset="5.376000e-03" />
		<stop
   id="stop981"
   style="stop-color:#FFEB01"
   offset="1" />
	</linearGradient>
	<polygon
   id="polygon984"
   clip-path="url(#SVGID_26_)"
   points="19.1,212.14 34.29,210.11 37.72,235.09 22.53,237.13  "
   class="st8" />
</g>
<g
   id="g1003">
	<defs
   id="defs989">
		<path
   d="M13.02,219.41c-3.2,2.04,17.53,22.83,18.02,24.58c1.95,2.11,3.77-1.58,2.19-3.17    c0,0-17.83-21.45-17.83-21.45C14.74,218.53,13.6,218.52,13.02,219.41"
   id="SVGID_28_" />
	</defs>
	<clipPath
   id="SVGID_29_">
		<use
   id="use991"
   style="overflow:visible;"
   xlink:href="#SVGID_28_" />
	</clipPath>
	
		<linearGradient
   gradientTransform="matrix(17.2134 -2.7964 -2.9001 -17.5106 3172.5205 7074.186)"
   y2="408.9773"
   x2="-113.5522"
   y1="408.9773"
   x1="-114.5522"
   gradientUnits="userSpaceOnUse"
   id="SVGID_30_">
		<stop
   id="stop994"
   style="stop-color:#F86305"
   offset="0" />
		<stop
   id="stop996"
   style="stop-color:#F86305"
   offset="5.376000e-03" />
		<stop
   id="stop998"
   style="stop-color:#FFEB01"
   offset="1" />
	</linearGradient>
	<polygon
   id="polygon1001"
   clip-path="url(#SVGID_29_)"
   points="12.03,219.05 29.75,216.17 34.42,244.36 16.69,247.24  "
   class="st9" />
</g>
<path
   id="path1005"
   d="M202.6,62.29c0.05,0.07,0.09,0.14,0.13,0.21C202.69,62.43,202.65,62.36,202.6,62.29z"
   class="st10" />
<path
   style="stroke:#ffffff;stroke-opacity:1;stroke-width:1.88976378;stroke-miterlimit:4;stroke-dasharray:none"
   id="path1007"
   d="M166.5,153.02c-14.62,5.88-15.12,10-43.81,17.61C126.67,261.62,143.45,235.49,166.5,153.02z"
   class="st11" />
<path
   style="stroke:#fefefe;stroke-opacity:1;stroke-width:1.88976378;stroke-miterlimit:4;stroke-dasharray:none"
   id="path1009"
   d="M111.07,86.28c-8.59,13.2-12.73,12.9-25.74,39.59C-3.18,104.37,25.7,92.95,111.07,86.28" />
<g
   id="g1026">
	<defs
   id="defs1012">
		<path
   d="M132.99,124.17 M156.06,124.96 M136.68,101.39 M132.99,124.17 M213.19,18.16    c-78.35,19.69-119.25,98.4-125,109.88c8.05,9.8,24.26,29.5,32.32,39.3c29.87-3.66,144.94-61.9,145.42-152.51    C248.38,12.82,232.1,13.53,213.19,18.16"
   id="SVGID_31_" />
	</defs>
	<clipPath
   id="SVGID_32_">
		<use
   id="use1014"
   style="overflow:visible;"
   xlink:href="#SVGID_31_" />
	</clipPath>
	
		<linearGradient
   gradientTransform="matrix(-0.3935 -163.918 -161.8713 -12.5159 66251.7188 -13477.7715)"
   y2="408.4695"
   x2="-113.4588"
   y1="408.4695"
   x1="-114.4588"
   gradientUnits="userSpaceOnUse"
   id="SVGID_33_">
		<stop
   id="stop1017"
   style="stop-color:#FF152F"
   offset="0" />
		<stop
   id="stop1019"
   style="stop-color:#9A16F7"
   offset="0" />
		<stop
   id="stop1021"
   style="stop-color:#2A0003"
   offset="1" />
	</linearGradient>
	<polygon
   id="polygon1024"
   clip-path="url(#SVGID_32_)"
   points="88.19,167.33 87.79,0 265.93,13.77 266.33,181.1  "
   class="st12" />
</g>
<g
   id="g1044">
	<g
   id="g1042">
		<path
   inkscape:connector-curvature="0"
   id="path1028"
   d="m 125.77,112.2 1.57,-1.3 13.78,16.74 6.15,-5.06 1.67,2.03 -7.72,6.35 z"
   class="st13" />
		<path
   inkscape:connector-curvature="0"
   id="path1030"
   d="m 140.05,100.64 c -0.9,-1.09 -0.98,-2.27 -0.25,-2.86 0.73,-0.59 1.86,-0.29 2.76,0.8 0.92,1.12 0.98,2.27 0.26,2.86 -0.72,0.59 -1.85,0.32 -2.77,-0.8 z m 6.12,6.15 -4.27,3.51 -1.58,-1.92 5.84,-4.81 11.45,13.91 -1.57,1.3 z"
   class="st13" />
		<path
   inkscape:connector-curvature="0"
   id="path1032"
   d="m 153.62,95.48 c -2.78,-3.38 -3.46,-6.61 -0.92,-8.7 0.91,-0.75 1.99,-1.21 3.32,-1.38 l 1.1,2.07 c -1.16,0.14 -1.89,0.45 -2.68,1.11 -1.65,1.36 -1.16,3.31 0.68,5.54 l 12.48,15.17 -1.55,1.28 z m -1.56,3.48 2.56,-2.34 5.37,-4.42 1.58,1.92 -8.04,6.62 z"
   class="st13" />
		<path
   inkscape:connector-curvature="0"
   id="path1034"
   d="m 172.27,96.35 -5.42,-6.58 -2.62,2.15 -1.46,-1.77 2.56,-2.34 -3.47,-4.64 1.31,-1.08 3.67,4.46 4.51,-3.72 1.58,1.92 -4.51,3.72 5.44,6.61 c 2.05,2.49 3.66,3.32 5.44,1.86 0.85,-0.7 1.32,-1.52 1.68,-2.44 l 1.78,1.46 c -0.46,1.14 -1.04,2.25 -2.2,3.2 -2.68,2.22 -5.46,0.62 -8.29,-2.81 z"
   class="st13" />
		<path
   inkscape:connector-curvature="0"
   id="path1036"
   d="m 179.63,87.74 c -3.84,-4.66 -3.91,-9.07 -1.48,-11.07 2.43,-2 6.74,-1.08 10.58,3.58 3.79,4.61 3.86,9.02 1.43,11.02 -2.42,1.99 -6.73,1.08 -10.53,-3.53 z m 7.5,-6.16 c -2.64,-3.2 -5.58,-4.38 -7.34,-2.93 -1.76,1.45 -1.17,4.57 1.46,7.77 2.62,3.18 5.53,4.33 7.3,2.88 1.76,-1.46 1.19,-4.55 -1.42,-7.72 z"
   class="st13" />
		<path
   inkscape:connector-curvature="0"
   id="path1038"
   d="m 187.75,67.38 c -2.78,-3.38 -3.46,-6.61 -0.92,-8.7 0.91,-0.75 2,-1.21 3.32,-1.38 l 1.1,2.07 c -1.16,0.14 -1.89,0.45 -2.68,1.11 -1.65,1.36 -1.16,3.31 0.68,5.54 l 12.48,15.17 -1.56,1.28 z m -1.55,3.49 2.56,-2.34 5.37,-4.42 1.58,1.92 -8.04,6.62 z"
   class="st13" />
		<path
   inkscape:connector-curvature="0"
   id="path1040"
   d="m 199.13,58.01 c -2.78,-3.38 -3.46,-6.61 -0.92,-8.7 0.91,-0.75 2,-1.21 3.32,-1.38 l 1.1,2.07 c -1.16,0.14 -1.89,0.45 -2.68,1.11 -1.65,1.36 -1.16,3.31 0.68,5.54 l 12.48,15.17 -1.56,1.28 z m -1.55,3.49 2.56,-2.34 5.37,-4.42 1.58,1.92 -8.04,6.62 z"
   class="st13" />
	</g>
</g>
</svg>
